<svg xmlns="http://www.w3.org/2000/svg">
    <symbol viewBox="0 0 24 24" id="table">
        <path
            d="M4 9.5h16m-16 5h16M9 4.5v15m-1.8 0h9.6c1.12 0 1.68 0 2.108-.218a2 2 0 0 0 .874-.874C20 17.98 20 17.42 20 16.3V7.7c0-1.12 0-1.68-.218-2.108a2 2 0 0 0-.874-.874C18.48 4.5 17.92 4.5 16.8 4.5H7.2c-1.12 0-1.68 0-2.108.218a2 2 0 0 0-.874.874C4 6.02 4 6.58 4 7.7v8.6c0 1.12 0 1.68.218 2.108a2 2 0 0 0 .874.874c.428.218.988.218 2.108.218Z"
            stroke-width="2" />
    </symbol>

    <symbol viewBox="0 0 24 24" id="twitter">
        <path fill-rule="evenodd" clip-rule="evenodd"
            d="M19.783 3.918c.348-.082.591-.164.79-.249.28-.12.51-.263.876-.504A1 1 0 0 1 23 4c0 1.08-.135 1.967-.447 2.746a5.47 5.47 0 0 1-1.071 1.674c-.187 3.363-1.16 6.004-2.648 8.005-1.543 2.074-3.595 3.402-5.759 4.146-2.157.741-4.436.907-6.478.656-2.029-.25-3.904-.921-5.211-1.938a1 1 0 0 1 .755-1.78c1.286.185 2.524-.108 3.542-.526-.2-.109-.39-.227-.565-.348-.927-.643-1.676-1.514-2.012-2.188A1 1 0 0 1 3.4 13.2C2.047 12.081 1.5 10.536 1.5 9.5a1 1 0 0 1 .723-.96 7.357 7.357 0 0 1-.24-.887c-.266-1.287-.242-2.74.047-3.895A1 1 0 0 1 3.866 3.5c1.078 1.868 3.065 3.01 4.915 3.686.87.318 1.675.52 2.279.645.13-1.22.47-2.227.994-3.027a4.586 4.586 0 0 1 2.686-1.957c1.783-.48 3.76.067 5.043 1.071Zm-9.035 5.89a18.334 18.334 0 0 1-2.654-.744c-1.357-.496-2.933-1.27-4.253-2.468.023.22.057.439.1.652.222 1.071.633 1.671 1.006 1.857a1 1 0 0 1 .49 1.242c-.239.648-.869.7-1.441.558.46.69 1.288 1.378 2.668 1.609a1 1 0 0 1 .032 1.966l-.87.175c.133.115.277.229.43.335.698.483 1.397.69 2.001.54a1 1 0 0 1 .883 1.738c-.644.536-1.396.966-2.15 1.323-.353.168-.749.333-1.178.479.33.07.674.128 1.029.172 1.77.217 3.741.07 5.584-.563 1.836-.631 3.534-1.74 4.804-3.448 1.268-1.705 2.153-4.064 2.272-7.268a1 1 0 0 1 .292-.67c.45-.45.821-.965 1.004-1.579-.32.1-.68.186-1.11.268a1 1 0 0 1-.894-.275c-.765-.764-2.277-1.267-3.533-.929A2.587 2.587 0 0 0 13.727 5.9C13.315 6.53 13 7.51 13 9a1 1 0 0 1-.33.743c-.498.45-1.336.184-1.922.066Z"
            fill="gray" />
    </symbol>

    <symbol viewBox="0 0 32 32" id="youtube">
        <path
            d="M29.398 5.928c-.867-.624-3.283-1.453-13.406-1.453-10.848 0-12.458.952-12.975 1.264C.268 7.391.007 14.702-.017 16.184c.033 1.958.349 8.473 3.032 10.084.515.311 2.116 1.257 12.976 1.257 10.13 0 12.543-.825 13.406-1.447 2.343-1.686 2.612-7.49 2.619-9.92-.006-1.954-.211-8.496-2.619-10.23zM28.23 24.456c-.349.251-2.35 1.069-12.239 1.069-9.56 0-11.566-.742-11.945-.971-.965-.579-1.984-3.652-2.063-8.376.079-4.713 1.111-8.153 2.066-8.726.38-.229 2.393-.977 11.943-.977 9.881 0 11.887.824 12.239 1.076.857.617 1.773 3.865 1.787 8.613-.014 4.823-.936 7.678-1.787 8.291zm-5.717-9.243-8.998-5.522a.999.999 0 0 0-1.517.857v11.045a1 1 0 0 0 1.516.857l8.998-5.524a1 1 0 0 0 0-1.713zm-8.514 4.609v-7.503l6.063 3.751z" />
    </symbol>

    <symbol viewBox="0 0 512 512"
        xml:space="preserve" id="pinterest"><path d="M256 0C114.609 0 0 114.609 0 256s114.609 256 256 256 256-114.609 256-256S397.391 0 256 0zm0 472c-119.297 0-216-96.703-216-216S136.703 40 256 40s216 96.703 216 216-96.703 216-216 216z"/><path d="M262.031 128c-70.188 0-105.594 50.094-105.594 91.859 0 25.297 9.609 47.797 30.25 56.172 3.406 1.312 6.422.062 7.406-3.672.688-2.578 2.297-9.094 3.016-11.812.984-3.688.609-5-2.125-8.188-5.953-6.984-9.75-16.016-9.75-28.828 0-37.172 27.938-70.422 72.734-70.422 39.625 0 61.469 24.109 61.469 56.359 0 42.375-18.844 78.125-46.812 78.125-15.484 0-27.062-12.703-23.344-28.297 4.438-18.594 13.031-38.703 13.031-52.172 0-12.031-6.5-22.094-19.906-22.094-15.812 0-28.484 16.297-28.484 38.078 0 13.875 4.703 23.266 4.703 23.266s-16.156 68.203-19 80.125c-5.656 23.797-.844 52.938-.438 55.875.234 1.75 2.5 2.172 3.5.844 1.469-1.891 20.281-25.016 26.672-48.125 1.828-6.516 10.391-40.422 10.391-40.422 5.141 9.75 20.141 18.344 36.094 18.344 47.484 0 79.719-43.078 79.719-100.781-.001-43.609-37.125-84.234-93.532-84.234z"/>
</symbol>

    <symbol viewBox="0 -4 32 32" id="mail">
        <path
            d="M30 20c0 .203-.039.395-.095.578L21 11l9-7v16ZM3.556 21.946l9.024-9.616L16 14.915l3.272-2.601 9.172 9.632c-.143.033-24.745.033-24.888 0ZM2 20V4l9 7-8.905 9.578A1.966 1.966 0 0 1 2 20ZM29 2 16 12 3 2h26Zm-1-2H4a4 4 0 0 0-4 4v16a4 4 0 0 0 4 4h24a4 4 0 0 0 4-4V4a4 4 0 0 0-4-4Z"
            fill="gray" stroke="none" fill-rule="evenodd" />
    </symbol>

    <symbol viewBox="0 0 24 24" id="instagram">
        <g fill="gray">
            <path fill-rule="evenodd" clip-rule="evenodd"
                d="M12 18a6 6 0 1 0 0-12 6 6 0 0 0 0 12Zm0-2a4 4 0 1 0 0-8 4 4 0 0 0 0 8Z" />
            <path d="M18 5a1 1 0 1 0 0 2 1 1 0 0 0 0-2Z" />
            <path fill-rule="evenodd" clip-rule="evenodd"
                d="M1.654 4.276C1 5.56 1 7.24 1 10.6v2.8c0 3.36 0 5.04.654 6.324a6 6 0 0 0 2.622 2.622C5.56 23 7.24 23 10.6 23h2.8c3.36 0 5.04 0 6.324-.654a6 6 0 0 0 2.622-2.622C23 18.44 23 16.76 23 13.4v-2.8c0-3.36 0-5.04-.654-6.324a6 6 0 0 0-2.622-2.622C18.44 1 16.76 1 13.4 1h-2.8c-3.36 0-5.04 0-6.324.654a6 6 0 0 0-2.622 2.622ZM13.4 3h-2.8c-1.713 0-2.878.002-3.778.075-.877.072-1.325.202-1.638.361a4 4 0 0 0-1.748 1.748c-.16.313-.29.761-.36 1.638C3.001 7.722 3 8.887 3 10.6v2.8c0 1.713.002 2.878.075 3.778.072.877.202 1.325.361 1.638a4 4 0 0 0 1.748 1.748c.313.16.761.29 1.638.36.9.074 2.065.076 3.778.076h2.8c1.713 0 2.878-.002 3.778-.075.877-.072 1.325-.202 1.638-.361a4 4 0 0 0 1.748-1.748c.16-.313.29-.761.36-1.638.074-.9.076-2.065.076-3.778v-2.8c0-1.713-.002-2.878-.075-3.778-.072-.877-.202-1.325-.361-1.638a4 4 0 0 0-1.748-1.748c-.313-.16-.761-.29-1.638-.36C16.278 3.001 15.113 3 13.4 3Z" />
        </g>
    </symbol>

    <symbol viewBox="0 0 256 256" id="gallery">
        <path
            d="M184.008 76h-144a12.013 12.013 0 0 0-12 12v112a12.013 12.013 0 0 0 12 12h144a12.013 12.013 0 0 0 12-12V88a12.013 12.013 0 0 0-12-12Zm4 124a4.005 4.005 0 0 1-4 4h-144a4.005 4.005 0 0 1-4-4V88a4.005 4.005 0 0 1 4-4h144a4.005 4.005 0 0 1 4 4Zm40-144v120a4 4 0 0 1-8 0V56a4.005 4.005 0 0 0-4-4h-152a4 4 0 0 1 0-8h152a12.013 12.013 0 0 1 12 12Z" />
    </symbol>

    <symbol preserveAspectRatio="xMidYMid" viewBox="0 0 14.906 32" id="facebook">
        <path
            d="m14.874 11.167-.612 3.04c-.2 1.001-1.162 1.785-2.19 1.785H10V30c0 1.104-.841 2-1.951 2H5.03a2.01 2.01 0 0 1-2.013-2.001V15.992H2.011a2.009 2.009 0 0 1-2.013-2.001V10.99a2.01 2.01 0 0 1 2.013-2.001h1.006V6.003c0-3.287 2.676-5.962 5.977-5.99.021-.001.039-.012.061-.012h4.026c.555 0 .919.447.919.999v5c0 .553-.364 1.004-.919 1.004h-3.02l-.001 1.985h3.019c.566 0 1.088.239 1.43.655.343.415.476.971.365 1.523Zm-5.782-.177c-.014.001-.025.008-.039.008a1.004 1.004 0 0 1-1.006-1.001V9.99l.002-3.987c0-.553.45-1 1.006-1h3.019V2.002h-2.98c-.017 0-.031.009-.049.009-2.214 0-4.015 1.791-4.015 3.992v4.002c0 .553-.451 1.001-1.007 1.001-.027 0-.05-.014-.077-.016H2.011v3.001h2.012c.556 0 1.007.448 1.007 1.001 0 .052-.022.096-.03.146V30l3.049-.001V15.002l-.002-.01c0-.553.45-1.001 1.006-1.001h3.019c.073 0 .203-.105.216-.175l.569-2.826H9.092Z" />
    </symbol>

    <symbol viewBox="-44.43 -44.43 533.15 533.15" xml:space="preserve" id="cards">
    <path
        d="m398.636 141.538-222.328-140A10 10 0 0 0 160.98 10v42.33c0 5.523 4.478 10 10 10s10-4.477 10-10V28.114L383.308 155.52v180.652l-14.672-9.238c-4.671-2.943-10.848-1.539-13.79 3.133-2.943 4.673-1.54 10.848 3.134 13.791l30 18.891a9.992 9.992 0 0 0 10.161.292 10 10 0 0 0 5.167-8.754V150a10 10 0 0 0-4.672-8.462z" />
    <path
        d="m338.636 181.538-222.328-140A10.001 10.001 0 0 0 100.98 50v42.33c0 5.523 4.478 10 10 10s10-4.477 10-10V68.114L323.308 195.52v180.652l-14.672-9.238c-4.671-2.944-10.848-1.54-13.79 3.133-2.943 4.673-1.54 10.848 3.134 13.791l30 18.891a9.992 9.992 0 0 0 10.161.292 10 10 0 0 0 5.167-8.754V190a10 10 0 0 0-4.672-8.462z" />
    <path
        d="m278.636 221.538-222.328-140A10 10 0 0 0 40.98 90v204.287a10 10 0 0 0 4.672 8.462l222.328 140a9.992 9.992 0 0 0 10.161.292 10 10 0 0 0 5.167-8.754V230a10 10 0 0 0-4.672-8.462zm-15.328 194.635L60.98 288.767V108.114L263.308 235.52v180.653z" />
    <path
        d="m171.815 255.051 36.164 22.772a9.993 9.993 0 0 0 13.79-3.133c2.943-4.673 1.54-10.848-3.134-13.791l-36.164-22.772c-4.671-2.944-10.848-1.54-13.79 3.133-2.943 4.674-1.539 10.848 3.134 13.791zM105.651 263.388l102.328 64.436a9.993 9.993 0 0 0 13.79-3.133c2.943-4.673 1.54-10.848-3.134-13.791l-102.328-64.436c-4.671-2.943-10.848-1.54-13.79 3.133-2.943 4.674-1.539 10.848 3.134 13.791zM105.651 213.388l36.164 22.772a9.993 9.993 0 0 0 13.79-3.133c2.943-4.673 1.54-10.848-3.134-13.791l-36.164-22.772c-4.671-2.943-10.848-1.54-13.79 3.133-2.943 4.674-1.539 10.848 3.134 13.791z" />
    </symbol>

    <symbol viewBox="0 0 24 24" id="arrow-right">
        <path d="M6 12h12M6 12l5-5m-5 5 5 5" stroke-width="2" stroke-linecap="round"
            stroke-linejoin="round" />
    </symbol>

    <symbol viewBox="0 0 24 24" id="arrow-down">
        <path d="M12 4v16m0 0-4-4m4 4 4-4" stroke-width="2" stroke-linecap="round"
            stroke-linejoin="round" />
    </symbol>
</svg>